#!OML:ASF I:\salsa\salsa 7_09\Patient 1\Session 1\dancerfemale.ASF
:FULLY-SPECIFIED
:DEGREES
1472
root 11.545 15.9275 -4.31598 62.358 -432.958 -60.8332
lowerback 6.75833 1.4771 12.1016
upperback -5.3597 3.35995 1.72217
thorax -9.04722 0.872405 -5.37936
lowerneck 1.62036 2.99585 -1.06325
upperneck 4.14222 3.89732 2.03506
head 0.936742 1.93845 0.809876
rclavicle 6.85807e-015 -5.00937e-014
rhumerus -35.2524 18.0628 -96.7806
rradius 89.0998
rwrist -17.3429
rhand -3.65085 51.7362
rfingers 7.12502
rthumb 22.0892 22.9779
lclavicle 6.85807e-015 -5.00937e-014
lhumerus -13.344 25.7276 48.6607
lradius 90.2558
lwrist 50.0326
lhand 5.05293 46.7728
lfingers 7.12502
lthumb 30.4205 74.2831
rfemur -6.71769 -11.248 34.7659
rtibia 11.2816
rfoot -4.20664 9.62089
rtoes 8.80986
lfemur -34.0083 -0.634287 -13.5708
ltibia 99.3863
lfoot 39.654 -7.01646
ltoes -29.8472
1473
root 11.3464 15.9097 -4.34539 65.3366 -433.443 -64.1273
lowerback 6.40299 1.37081 11.6549
upperback -5.02778 3.10703 2.01147
thorax -8.53928 0.831797 -4.76978
lowerneck 1.57681 3.9984 -0.151766
upperneck 3.98852 5.26623 1.31708
head 0.916224 2.62905 0.442259
rclavicle -5.15846e-014 -6.36111e-015
rhumerus -31.5746 19.5457 -97.6359
rradius 88.8226
rwrist -16.5397
rhand -3.1234 52.2065
rfingers 7.12502
rthumb 22.5955 23.5089
lclavicle -5.15846e-014 -6.36111e-015
lhumerus -16.1627 27.8463 45.7247
lradius 91.2546
lwrist 50.6442
lhand 5.10505 47.2156
lfingers 7.12502
lthumb 30.4702 74.7167
rfemur -5.73087 -10.741 34.7019
rtibia 11.8212
rfoot -4.50939 10.3032
rtoes 11.3372
lfemur -34.3301 1.41863 -14.9705
ltibia 100.288
lfoot 39.8246 -6.69098
ltoes -29.7329
1474
root 11.1539 15.8974 -4.37843 68.4005 -433.471 -67.2052
lowerback 5.9975 1.32525 11.6161
upperback -4.91892 2.98015 2.22513
thorax -8.2124 0.800356 -4.48644
lowerneck 1.58899 4.87747 0.883966
upperneck 3.97752 6.46154 0.777929
head 0.954194 3.23543 0.117502
rclavicle 2.03754e-014 -6.04305e-014
rhumerus -29.1266 19.8163 -98.5991
rradius 88.967
rwrist -14.6795
rhand -1.51227 53.4997
rfingers 7.12502
rthumb 24.1411 24.9987
lclavicle 2.03754e-014 -6.04305e-014
lhumerus -18.8179 29.6319 42.9641
lradius 92.1959
lwrist 50.9129
lhand 5.33954 47.4377
lfingers 7.12502
lthumb 30.6938 74.897
rfemur -5.22104 -11.7705 35.0811
rtibia 12.3443
rfoot -4.33857 12.2382
rtoes 13.7607
lfemur -35.1518 3.31784 -15.3183
ltibia 100.928
lfoot 38.9212 -5.40443
ltoes -26.9266
1475
root 10.966 15.8885 -4.41485 71.0703 -433.281 -69.6915
lowerback 5.53667 1.30775 11.6694
upperback -4.89371 2.89345 2.39874
thorax -7.93449 0.774522 -4.30232
lowerneck 1.41087 5.68948 1.83104
upperneck 4.14264 7.55162 0.556555
head 1.08357 3.7921 -0.0843611
rclavicle -5.96354e-016 0
rhumerus -27.1227 20.7059 -100.122
rradius 89.4496
rwrist -14.6976
rhand -1.90903 53.2856
rfingers 7.12502
rthumb 23.7606 24.7346
lclavicle -5.96354e-016 0
lhumerus -21.437 31.1179 40.1996
lradius 93.0614
lwrist 51.2423
lhand 5.73609 47.408
lfingers 7.12502
lthumb 31.0718 74.7958
rfemur -4.69225 -13.7257 35.6445
rtibia 12.1248
rfoot -3.71805 14.7786
rtoes 14.4547
lfemur -36.3992 4.6244 -14.936
ltibia 100.89
lfoot 38.4558 -1.68213
ltoes -22.4624
1476
root 10.7719 15.8838 -4.4543 72.9467 -433.357 -71.4544
lowerback 5.30687 1.26702 11.3457
upperback -4.89744 2.77786 2.46252
thorax -7.83273 0.743672 -4.03578
lowerneck 0.798087 6.50567 2.34336
upperneck 4.75185 8.60513 0.907912
head 1.39391 4.33481 -0.0149224
rclavicle -2.80286e-014 -4.77083e-014
rhumerus -25.7073 21.6657 -101.846
rradius 90.166
rwrist -14.7629
rhand -2.51962 53.224
rfingers 7.12502
rthumb 23.1749 24.5982
lclavicle -2.80286e-014 -4.77083e-014
lhumerus -24.1053 32.3531 37.2092
lradius 93.6953
lwrist 51.8376
lhand 6.10207 47.5731
lfingers 7.12502
lthumb 31.4206 74.8936
rfemur -4.1407 -16.4861 35.7951
rtibia 11.9622
rfoot -2.87982 17.7929
rtoes 13.3638
lfemur -37.5303 5.81284 -14.544
ltibia 100.425
lfoot 38.8315 -2.43538
ltoes -21.7817
1477
root 10.5774 15.8759 -4.49607 74.1543 -433.584 -72.7446
lowerback 5.48712 1.25913 10.8127
upperback -4.95408 2.75148 2.41715
thorax -8.0159 0.749816 -3.79494
lowerneck 0.107315 7.21856 2.61141
upperneck 5.55792 9.48413 1.67746
head 1.75164 4.79823 0.236506
rclavicle -2.25621e-014 -4.21423e-014
rhumerus -24.9234 22.6748 -103.67
rradius 91.0054
rwrist -15.0933
rhand -2.58653 53.1995
rfingers 7.12502
rthumb 23.1107 24.5656
lclavicle -2.25621e-014 -4.21423e-014
lhumerus -26.4236 33.1695 34.275
lradius 93.8941
lwrist 52.6876
lhand 6.55308 47.6327
lfingers 7.12502
lthumb 31.8502 74.8686
rfemur -3.49957 -18.5974 35.6164
rtibia 12.2811
rfoot -2.47472 19.9689
rtoes 12.0262
lfemur -38.4192 6.84797 -13.9241
ltibia 99.5109
lfoot 36.693 -0.50745
ltoes -24.7954
